<svg width="110" height="110" viewBox="0 0 110 110" fill="none" xmlns="http://www.w3.org/2000/svg">
<circle cx="54.9602" cy="55.0397" r="54.3775" fill="#2B2D42"/>
<path d="M81.4453 65.7547L83.4175 66.5659C83.7557 65.7434 83.5481 64.7974 82.8964 64.1922C82.2448 63.587 81.286 63.4498 80.4907 63.8479L81.4453 65.7547ZM52.6491 30.6019L54.37 31.8612C54.8937 31.1457 54.9199 30.1807 54.4358 29.4377C53.9517 28.6948 53.0583 28.3289 52.1922 28.519L52.6491 30.6019ZM71.2327 66.0305C59.6594 66.0305 50.218 56.4835 50.218 44.6328L45.9531 44.6328C45.9531 58.7727 57.2383 70.2954 71.2327 70.2954L71.2327 66.0305ZM80.4907 63.8479C77.6991 65.2453 74.5585 66.0305 71.2327 66.0305L71.2327 70.2954C75.2381 70.2954 79.0308 69.3482 82.3999 67.6616L80.4907 63.8479ZM79.4732 64.9436C75.9554 73.4963 67.6629 79.4723 58.0269 79.4723L58.0269 83.7372C69.4835 83.7372 79.2777 76.631 83.4175 66.5659L79.4732 64.9436ZM58.0269 79.4723C45.225 79.4723 34.7875 68.9128 34.7875 55.813L30.5226 55.813C30.5226 71.202 42.8039 83.7372 58.0269 83.7372L58.0269 79.4723ZM34.7875 55.813C34.7875 44.4439 42.6572 34.9771 53.1061 32.6848L52.1922 28.519C39.7823 31.2415 30.5226 42.445 30.5226 55.813L34.7875 55.813ZM50.218 44.6328C50.218 39.84 51.763 35.4236 54.37 31.8612L50.9283 29.3425C47.8013 33.6154 45.9531 38.9094 45.9531 44.6328L50.218 44.6328Z" fill="#EDF2F4"/>
</svg>
