<svg width="110" height="110" viewBox="0 0 110 110" fill="none" xmlns="http://www.w3.org/2000/svg">
<circle cx="55.0397" cy="54.9603" r="54.3775" fill="#EDF2F4"/>
<path d="M40.2649 56.0495C40.2019 61.8716 41.1762 65.0614 43.0093 66.8944C44.8491 68.7342 48.0792 69.7351 53.9737 69.7351C59.8673 69.7351 63.0618 68.7344 64.8849 66.8993C66.7114 65.061 67.6823 61.8629 67.6823 56.0264C67.6823 50.19 66.7114 46.9919 64.8849 45.1536C63.0618 43.3185 59.8673 42.3178 53.9737 42.3178C48.0808 42.3178 44.9221 43.3183 43.1155 45.1486C41.2957 46.9924 40.3283 50.1986 40.2649 56.0495Z" stroke="#8D99AE" stroke-width="4.2649" stroke-linecap="round" stroke-linejoin="round"/>
<path d="M56.106 30.2847C56.106 29.107 55.1513 28.1523 53.9735 28.1523C52.7958 28.1523 51.8411 29.107 51.8411 30.2847H56.106ZM51.8411 34.245C51.8411 35.4227 52.7958 36.3774 53.9735 36.3774C55.1513 36.3774 56.106 35.4227 56.106 34.245H51.8411ZM51.8411 30.2847V34.245H56.106V30.2847H51.8411Z" fill="#8D99AE"/>
<path d="M56.106 77.808C56.106 76.6302 55.1513 75.6755 53.9735 75.6755C52.7958 75.6755 51.8411 76.6302 51.8411 77.808H56.106ZM51.8411 81.7682C51.8411 82.9459 52.7958 83.9007 53.9735 83.9007C55.1513 83.9007 56.106 82.9459 56.106 81.7682H51.8411ZM51.8411 77.808V81.7682H56.106V77.808H51.8411Z" fill="#8D99AE"/>
<path d="M79.7153 58.1589C80.893 58.1589 81.8477 57.2042 81.8477 56.0265C81.8477 54.8488 80.893 53.894 79.7153 53.894L79.7153 58.1589ZM75.755 53.894C74.5773 53.894 73.6226 54.8488 73.6226 56.0265C73.6226 57.2042 74.5773 58.1589 75.755 58.1589L75.755 53.894ZM79.7153 53.894L75.755 53.894L75.755 58.1589L79.7153 58.1589L79.7153 53.894Z" fill="#8D99AE"/>
<path d="M32.192 58.1589C33.3698 58.1589 34.3245 57.2042 34.3245 56.0265C34.3245 54.8488 33.3698 53.894 32.192 53.894L32.192 58.1589ZM28.2318 53.894C27.0541 53.894 26.0993 54.8488 26.0993 56.0265C26.0993 57.2042 27.0541 58.1589 28.2318 58.1589L28.2318 53.894ZM32.192 53.894L28.2318 53.894L28.2318 58.1589L32.192 58.1589L32.192 53.894Z" fill="#8D99AE"/>
<path d="M35.6801 34.7173C34.8473 33.8845 33.4971 33.8845 32.6644 34.7173C31.8316 35.5501 31.8316 36.9003 32.6644 37.733L35.6801 34.7173ZM35.4647 40.5334C36.2975 41.3661 37.6477 41.3661 38.4804 40.5334C39.3132 39.7006 39.3132 38.3504 38.4804 37.5176L35.4647 40.5334ZM32.6644 37.733L35.4647 40.5334L38.4804 37.5176L35.6801 34.7173L32.6644 37.733Z" fill="#8D99AE"/>
<path d="M35.6801 78.1556C34.8473 78.9883 33.4971 78.9883 32.6644 78.1556C31.8316 77.3228 31.8316 75.9726 32.6644 75.1398L35.6801 78.1556ZM35.4647 72.3395C36.2975 71.5067 37.6477 71.5067 38.4804 72.3395C39.3132 73.1723 39.3132 74.5225 38.4804 75.3552L35.4647 72.3395ZM32.6644 75.1398L35.4647 72.3395L38.4804 75.3552L35.6801 78.1556L32.6644 75.1398Z" fill="#8D99AE"/>
<path d="M73.0869 34.7173C73.9197 33.8845 75.2699 33.8845 76.1026 34.7173C76.9354 35.5501 76.9354 36.9003 76.1026 37.733L73.0869 34.7173ZM73.3023 40.5334C72.4695 41.3661 71.1193 41.3661 70.2866 40.5334C69.4538 39.7006 69.4538 38.3504 70.2866 37.5176L73.3023 40.5334ZM76.1026 37.733L73.3023 40.5334L70.2866 37.5176L73.0869 34.7173L76.1026 37.733Z" fill="#8D99AE"/>
<path d="M73.0869 78.1556C73.9197 78.9883 75.2699 78.9883 76.1026 78.1556C76.9354 77.3228 76.9354 75.9726 76.1026 75.1398L73.0869 78.1556ZM73.3023 72.3395C72.4695 71.5067 71.1193 71.5067 70.2866 72.3395C69.4538 73.1723 69.4538 74.5225 70.2866 75.3552L73.3023 72.3395ZM76.1026 75.1398L73.3023 72.3395L70.2866 75.3552L73.0869 78.1556L76.1026 75.1398Z" fill="#8D99AE"/>
</svg>
